<svg width="220" height="220" viewBox="0 0 220 220" fill="none" xmlns="http://www.w3.org/2000/svg">
<path fill-rule="evenodd" clip-rule="evenodd" d="M41.4468 8.4114C45.1984 3.13438 51.2725 0 57.7472 0H200C211.046 0 220 8.95431 220 20V56.7188V61.875V200C220 211.046 211.046 220 200 220H20C8.9543 220 0 211.046 0 200V61.7188C0 58.9573 2.23857 56.7188 5 56.7188C6.31952 56.7188 7.5574 56.08 8.32198 55.0045L41.4468 8.4114Z" fill="#C4C4C4"/>
<rect width="168.438" height="51.5625" rx="20" transform="matrix(-1 0 0 1 194.219 134.062)" fill="#686868"/>
<path d="M87.5588 154.76V160.68H97.9268V164.84H87.5588V173H82.3748V150.6H99.3028V154.76H87.5588ZM102.148 155.784H107.14V173H102.148V155.784ZM104.644 153.384C103.726 153.384 102.98 153.117 102.404 152.584C101.828 152.051 101.54 151.389 101.54 150.6C101.54 149.811 101.828 149.149 102.404 148.616C102.98 148.083 103.726 147.816 104.644 147.816C105.561 147.816 106.308 148.072 106.884 148.584C107.46 149.096 107.748 149.736 107.748 150.504C107.748 151.336 107.46 152.029 106.884 152.584C106.308 153.117 105.561 153.384 104.644 153.384ZM111.773 149.256H116.765V173H111.773V149.256ZM138.262 164.456C138.262 164.52 138.23 164.968 138.166 165.8H125.142C125.376 166.867 125.931 167.709 126.806 168.328C127.68 168.947 128.768 169.256 130.07 169.256C130.966 169.256 131.755 169.128 132.438 168.872C133.142 168.595 133.792 168.168 134.39 167.592L137.046 170.472C135.424 172.328 133.056 173.256 129.942 173.256C128 173.256 126.283 172.883 124.79 172.136C123.296 171.368 122.144 170.312 121.334 168.968C120.523 167.624 120.118 166.099 120.118 164.392C120.118 162.707 120.512 161.192 121.302 159.848C122.112 158.483 123.211 157.427 124.598 156.68C126.006 155.912 127.574 155.528 129.302 155.528C130.987 155.528 132.512 155.891 133.878 156.616C135.243 157.341 136.31 158.387 137.078 159.752C137.867 161.096 138.262 162.664 138.262 164.456ZM129.334 159.304C128.203 159.304 127.254 159.624 126.486 160.264C125.718 160.904 125.248 161.779 125.078 162.888H133.558C133.387 161.8 132.918 160.936 132.15 160.296C131.382 159.635 130.443 159.304 129.334 159.304Z" fill="white"/>
</svg>
