<svg width="220" height="220" viewBox="0 0 220 220" fill="none" xmlns="http://www.w3.org/2000/svg">
<g filter="url(#filter0_b)">
<rect x="6.875" y="27.5" width="213.125" height="192.5" rx="20" fill="white"/>
</g>
<path fill-rule="evenodd" clip-rule="evenodd" d="M83.5938 0C72.5481 0 63.5938 8.95431 63.5938 20V41.25H20C8.95431 41.25 0 50.2043 0 61.25V200C0 211.046 8.9543 220 20 220H200C211.046 220 220 211.046 220 200V63.5938V41.25V20C220 8.9543 211.046 0 200 0H83.5938Z" fill="#C4C4C4"/>
<rect x="25.7812" y="134.062" width="168.438" height="51.5625" rx="20" fill="#68686A"/>
<path d="M66.9806 152.76V158.68H77.3486V162.84H66.9806V171H61.7966V148.6H78.7246V152.76H66.9806ZM89.6366 171.256C87.8233 171.256 86.1913 170.883 84.7406 170.136C83.3113 169.368 82.1913 168.312 81.3806 166.968C80.57 165.624 80.1646 164.099 80.1646 162.392C80.1646 160.685 80.57 159.16 81.3806 157.816C82.1913 156.472 83.3113 155.427 84.7406 154.68C86.1913 153.912 87.8233 153.528 89.6366 153.528C91.45 153.528 93.0713 153.912 94.5006 154.68C95.93 155.427 97.05 156.472 97.8606 157.816C98.6713 159.16 99.0766 160.685 99.0766 162.392C99.0766 164.099 98.6713 165.624 97.8606 166.968C97.05 168.312 95.93 169.368 94.5006 170.136C93.0713 170.883 91.45 171.256 89.6366 171.256ZM89.6366 167.16C90.9166 167.16 91.962 166.733 92.7726 165.88C93.6046 165.005 94.0206 163.843 94.0206 162.392C94.0206 160.941 93.6046 159.789 92.7726 158.936C91.962 158.061 90.9166 157.624 89.6366 157.624C88.3566 157.624 87.3006 158.061 86.4686 158.936C85.6366 159.789 85.2206 160.941 85.2206 162.392C85.2206 163.843 85.6366 165.005 86.4686 165.88C87.3006 166.733 88.3566 167.16 89.6366 167.16ZM102.413 147.256H107.405V171H102.413V147.256ZM129.574 147.256V171H124.806V169.016C123.569 170.509 121.777 171.256 119.43 171.256C117.809 171.256 116.337 170.893 115.014 170.168C113.713 169.443 112.689 168.408 111.942 167.064C111.196 165.72 110.822 164.163 110.822 162.392C110.822 160.621 111.196 159.064 111.942 157.72C112.689 156.376 113.713 155.341 115.014 154.616C116.337 153.891 117.809 153.528 119.43 153.528C121.628 153.528 123.345 154.221 124.582 155.608V147.256H129.574ZM120.294 167.16C121.553 167.16 122.598 166.733 123.43 165.88C124.262 165.005 124.678 163.843 124.678 162.392C124.678 160.941 124.262 159.789 123.43 158.936C122.598 158.061 121.553 157.624 120.294 157.624C119.014 157.624 117.958 158.061 117.126 158.936C116.294 159.789 115.878 160.941 115.878 162.392C115.878 163.843 116.294 165.005 117.126 165.88C117.958 166.733 119.014 167.16 120.294 167.16ZM151.059 162.456C151.059 162.52 151.027 162.968 150.963 163.8H137.939C138.173 164.867 138.728 165.709 139.603 166.328C140.477 166.947 141.565 167.256 142.867 167.256C143.763 167.256 144.552 167.128 145.235 166.872C145.939 166.595 146.589 166.168 147.187 165.592L149.843 168.472C148.221 170.328 145.853 171.256 142.739 171.256C140.797 171.256 139.08 170.883 137.587 170.136C136.093 169.368 134.941 168.312 134.131 166.968C133.32 165.624 132.915 164.099 132.915 162.392C132.915 160.707 133.309 159.192 134.099 157.848C134.909 156.483 136.008 155.427 137.395 154.68C138.803 153.912 140.371 153.528 142.099 153.528C143.784 153.528 145.309 153.891 146.675 154.616C148.04 155.341 149.107 156.387 149.875 157.752C150.664 159.096 151.059 160.664 151.059 162.456ZM142.131 157.304C141 157.304 140.051 157.624 139.283 158.264C138.515 158.904 138.045 159.779 137.875 160.888H146.355C146.184 159.8 145.715 158.936 144.947 158.296C144.179 157.635 143.24 157.304 142.131 157.304ZM159.15 156.056C159.747 155.224 160.547 154.595 161.55 154.168C162.574 153.741 163.747 153.528 165.07 153.528V158.136C164.515 158.093 164.142 158.072 163.95 158.072C162.521 158.072 161.401 158.477 160.59 159.288C159.779 160.077 159.374 161.272 159.374 162.872V171H154.382V153.784H159.15V156.056Z" fill="white"/>
<defs>
<filter id="filter0_b" x="-13.125" y="7.5" width="253.125" height="232.5" filterUnits="userSpaceOnUse" color-interpolation-filters="sRGB">
<feFlood flood-opacity="0" result="BackgroundImageFix"/>
<feGaussianBlur in="BackgroundImage" stdDeviation="10"/>
<feComposite in2="SourceAlpha" operator="in" result="effect1_backgroundBlur"/>
<feBlend mode="normal" in="SourceGraphic" in2="effect1_backgroundBlur" result="shape"/>
</filter>
</defs>
</svg>
