<svg width="1348" height="1011" viewBox="0 0 1348 1011" fill="none" xmlns="http://www.w3.org/2000/svg">
<path d="M0 674C0 487.88 150.88 337 337 337H1011C1197.12 337 1348 487.88 1348 674V674C1348 860.12 1197.12 1011 1011 1011H337C150.88 1011 0 860.12 0 674V674Z" fill="url(#paint0_linear)"/>
<circle cx="674" cy="337" r="337" fill="url(#paint1_angular)"/>
<circle cx="337" cy="674" r="337" fill="url(#paint2_angular)"/>
<circle cx="1011" cy="674" r="337" fill="url(#paint3_angular)"/>
<path d="M420.106 656.777C409.93 656.777 400.714 654.569 392.458 650.153C384.298 645.641 377.866 639.449 373.162 631.577C368.554 623.705 366.25 614.825 366.25 604.937C366.25 595.049 368.602 586.169 373.306 578.297C378.01 570.425 384.442 564.281 392.602 559.865C400.858 555.353 410.074 553.097 420.25 553.097C428.506 553.097 436.042 554.537 442.858 557.417C449.674 560.297 455.434 564.473 460.138 569.945L448.042 581.321C440.746 573.449 431.77 569.513 421.114 569.513C414.202 569.513 408.01 571.049 402.538 574.121C397.066 577.097 392.794 581.273 389.722 586.649C386.65 592.025 385.114 598.121 385.114 604.937C385.114 611.753 386.65 617.849 389.722 623.225C392.794 628.601 397.066 632.825 402.538 635.897C408.01 638.873 414.202 640.361 421.114 640.361C431.77 640.361 440.746 636.377 448.042 628.409L460.138 639.929C455.434 645.401 449.626 649.577 442.714 652.457C435.898 655.337 428.362 656.777 420.106 656.777ZM476.347 548.489H494.347V655.337H476.347V548.489ZM552.532 656.345C544.756 656.345 537.748 654.665 531.508 651.305C525.268 647.945 520.372 643.289 516.82 637.337C513.364 631.289 511.636 624.473 511.636 616.889C511.636 609.305 513.364 602.537 516.82 596.585C520.372 590.633 525.268 585.977 531.508 582.617C537.748 579.257 544.756 577.577 552.532 577.577C560.404 577.577 567.46 579.257 573.7 582.617C579.94 585.977 584.788 590.633 588.244 596.585C591.796 602.537 593.572 609.305 593.572 616.889C593.572 624.473 591.796 631.289 588.244 637.337C584.788 643.289 579.94 647.945 573.7 651.305C567.46 654.665 560.404 656.345 552.532 656.345ZM552.532 640.937C559.156 640.937 564.628 638.729 568.948 634.313C573.268 629.897 575.428 624.089 575.428 616.889C575.428 609.689 573.268 603.881 568.948 599.465C564.628 595.049 559.156 592.841 552.532 592.841C545.908 592.841 540.436 595.049 536.116 599.465C531.892 603.881 529.78 609.689 529.78 616.889C529.78 624.089 531.892 629.897 536.116 634.313C540.436 638.729 545.908 640.937 552.532 640.937ZM685.233 578.441V655.337H668.097V645.545C665.217 649.001 661.617 651.689 657.297 653.609C652.977 655.433 648.321 656.345 643.329 656.345C633.057 656.345 624.945 653.513 618.993 647.849C613.137 642.089 610.209 633.593 610.209 622.361V578.441H628.209V619.913C628.209 626.825 629.745 632.009 632.817 635.465C635.985 638.825 640.449 640.505 646.209 640.505C652.641 640.505 657.729 638.537 661.473 634.601C665.313 630.569 667.233 624.809 667.233 617.321V578.441H685.233ZM784.112 548.489V655.337H766.832V645.401C763.856 649.049 760.16 651.785 755.744 653.609C751.424 655.433 746.624 656.345 741.344 656.345C733.952 656.345 727.28 654.713 721.328 651.449C715.472 648.185 710.864 643.577 707.504 637.625C704.144 631.577 702.464 624.665 702.464 616.889C702.464 609.113 704.144 602.249 707.504 596.297C710.864 590.345 715.472 585.737 721.328 582.473C727.28 579.209 733.952 577.577 741.344 577.577C746.432 577.577 751.088 578.441 755.312 580.169C759.536 581.897 763.136 584.489 766.112 587.945V548.489H784.112ZM743.504 640.937C747.824 640.937 751.712 639.977 755.168 638.057C758.624 636.041 761.36 633.209 763.376 629.561C765.392 625.913 766.4 621.689 766.4 616.889C766.4 612.089 765.392 607.865 763.376 604.217C761.36 600.569 758.624 597.785 755.168 595.865C751.712 593.849 747.824 592.841 743.504 592.841C739.184 592.841 735.296 593.849 731.84 595.865C728.384 597.785 725.648 600.569 723.632 604.217C721.616 607.865 720.608 612.089 720.608 616.889C720.608 621.689 721.616 625.913 723.632 629.561C725.648 633.209 728.384 636.041 731.84 638.057C735.296 639.977 739.184 640.937 743.504 640.937ZM807.66 548.489H825.66V655.337H807.66V548.489ZM921.573 617.321C921.573 618.569 921.477 620.345 921.285 622.649H860.949C862.005 628.313 864.741 632.825 869.157 636.185C873.669 639.449 879.237 641.081 885.861 641.081C894.309 641.081 901.269 638.297 906.741 632.729L916.389 643.817C912.933 647.945 908.565 651.065 903.285 653.177C898.005 655.289 892.053 656.345 885.429 656.345C876.981 656.345 869.541 654.665 863.109 651.305C856.677 647.945 851.685 643.289 848.133 637.337C844.677 631.289 842.949 624.473 842.949 616.889C842.949 609.401 844.629 602.681 847.989 596.729C851.445 590.681 856.197 585.977 862.245 582.617C868.293 579.257 875.109 577.577 882.693 577.577C890.181 577.577 896.853 579.257 902.709 582.617C908.661 585.881 913.269 590.537 916.533 596.585C919.893 602.537 921.573 609.449 921.573 617.321ZM882.693 591.977C876.933 591.977 872.037 593.705 868.005 597.161C864.069 600.521 861.669 605.033 860.805 610.697H904.437C903.669 605.129 901.317 600.617 897.381 597.161C893.445 593.705 888.549 591.977 882.693 591.977ZM985.087 651.161C982.975 652.889 980.383 654.185 977.311 655.049C974.335 655.913 971.167 656.345 967.807 656.345C959.359 656.345 952.831 654.137 948.223 649.721C943.615 645.305 941.311 638.873 941.311 630.425V593.417H928.639V579.017H941.311V561.449H959.311V579.017H979.903V593.417H959.311V629.993C959.311 633.737 960.223 636.617 962.047 638.633C963.871 640.553 966.511 641.513 969.967 641.513C973.999 641.513 977.359 640.457 980.047 638.345L985.087 651.161Z" fill="url(#paint4_linear)"/>
<defs>
<linearGradient id="paint0_linear" x1="674" y1="674" x2="674" y2="660.285" gradientUnits="userSpaceOnUse">
<stop stop-color="#53B0B4"/>
<stop offset="1" stop-color="#3F519A"/>
</linearGradient>
<radialGradient id="paint1_angular" cx="0" cy="0" r="1" gradientUnits="userSpaceOnUse" gradientTransform="translate(674 337) scale(1175.58)">
<stop stop-color="#C068A8"/>
<stop offset="0.677083" stop-color="#BC6EA9"/>
<stop offset="1" stop-color="#77D5BA"/>
</radialGradient>
<radialGradient id="paint2_angular" cx="0" cy="0" r="1" gradientUnits="userSpaceOnUse" gradientTransform="translate(337 674) rotate(-0.987759) scale(340.969 337.05)">
<stop offset="0.00520833" stop-color="#53B0B4"/>
<stop offset="0.250053" stop-color="#53B0B4"/>
<stop offset="1" stop-color="#3F519A"/>
</radialGradient>
<radialGradient id="paint3_angular" cx="0" cy="0" r="1" gradientUnits="userSpaceOnUse" gradientTransform="translate(1011 674) rotate(180) scale(337)">
<stop offset="0.000384367" stop-color="#C068A8"/>
<stop offset="0.250884" stop-color="#C068A8"/>
<stop offset="0.827723" stop-color="#53B0B4"/>
<stop offset="0.999585" stop-color="#53B0B4"/>
</radialGradient>
<linearGradient id="paint4_linear" x1="337" y1="614.158" x2="1011" y2="617.53" gradientUnits="userSpaceOnUse">
<stop stop-color="#FF00BE"/>
<stop offset="0.505208" stop-color="#00FFB9"/>
<stop offset="1" stop-color="#0032FF"/>
</linearGradient>
</defs>
</svg>
